<svg width="704" height="173" viewBox="0 0 704 173" fill="none" xmlns="http://www.w3.org/2000/svg">
<path d="M151.573 1.97303C148.024 2.53365 145.036 4.77616 145.036 14.4937C145.036 24.2113 143.915 33.7419 145.036 122.134C146.156 210.527 15.5965 171.469 66.4009 98.0272C68.2065 101.889 70.8836 109.894 72.9382 108.866C74.9928 107.838 56.1279 78.2184 85.2657 73.9203C66.9612 80.4609 73.6106 101.877 85.2657 118.023C87.0713 120.328 90.2849 125.395 90.6824 128.675C91.0798 131.955 93.2973 129.049 93.1105 125.498C94.3557 127.678 95.6507 133.683 90.8691 140.261C88.441 143.064 94.1557 144.508 94.9783 146.428C95.5387 147.736 96.099 147.113 96.4726 146.428C96.348 145.12 96.3231 142.653 97.2197 143.251C97.5932 144.559 96.8461 151.474 101.329 149.418C105.812 147.362 111.228 144.186 109.547 138.019C108.732 135.029 111.975 136.337 111.975 139.514C111.975 143.251 116.832 137.271 115.898 129.422C115.524 122.197 114.152 106.838 115.337 104.381C117.952 98.9616 121.128 69.0615 114.404 64.3896C114.217 65.5731 113.656 68.015 112.909 68.314C112.909 65.8846 112.909 54.8589 110.855 52.6164C110.045 50.3116 108.427 46.2626 108.427 44.0201C108.427 43.0138 106.372 44.0201 106.185 44.7676C105.127 46.761 103.309 52.1305 104.504 57.6621C104.878 58.9702 95.3519 49.0658 110.294 31.3125C110.855 36.1713 111.789 45.3282 112.162 45.8889C112.536 46.4495 113.47 45.8889 114.217 44.5807C114.964 43.2726 117.392 39.9088 119.073 39.1613C119.222 37.0683 119.26 22.4671 119.26 15.4281L145.036 0.291143C147.028 -0.144901 151.125 -0.418985 151.573 1.97303Z" fill="#F06E00"/>
<path d="M106.559 80.0871C108.613 82.3296 112.199 87.9359 110.108 92.4209C105.998 91.2996 107.119 81.5821 106.559 80.0871Z" fill="#F06E00"/>
<path d="M80.5962 45.1413H93.1105C93.1105 20.2868 64.7198 11.6905 46.4153 20.2868C55.7543 20.1622 75.6652 24.9587 80.5962 45.1413Z" fill="#F06E00"/>
<path d="M39.878 57.1013C24.7487 46.8231 3.45575 60.652 2.14829 74.2939C6.8178 69.9958 18.7718 62.0348 29.2315 64.5764C35.3579 60.3903 38.8818 57.8488 39.878 57.1013Z" fill="#F06E00"/>
<path d="M69.3893 57.4753C55.9411 58.0359 36.8148 68.0151 29.7918 81.0217C42.5913 69.1916 51.5071 64.2792 69.3893 57.4753Z" fill="#EF6F00"/>
<path d="M74.9927 45.1413C68.829 21.5949 38.3839 21.7815 24.5621 34.8628C33.154 32.0597 52.8033 30.49 62.6653 46.636C63.4125 47.533 65.4671 47.259 66.401 47.0098L74.9927 45.1413Z" fill="#F06E00"/>
<path d="M57.9958 48.8786C41.7459 28.1353 15.9701 41.4037 9.99308 53.9244C16.8417 50.3738 33.3407 45.3281 44.5475 53.5507C45.855 54.1113 46.4154 53.9242 47.7229 53.3636L57.2487 49.6261C57.4977 49.5015 57.9958 49.1776 57.9958 48.8786Z" fill="#F06E00"/>
<path d="M23.0677 69.8089C7.9385 70.7433 -2.44641 80.6481 0.840929 102.326C6.99895 88.9268 11.8764 81.8035 23.0677 69.8089Z" fill="#EF6F00"/>
<path d="M98.5271 45.1413C98.8384 45.4527 99.5354 45.889 99.8343 45.1415C100.208 44.2071 102.076 29.8176 114.216 21.4082C106.372 15.0544 81.5298 12.2513 74.0586 13.5594C79.7242 15.9888 91.8027 22.9406 94.7912 31.3126C97.5929 38.4139 98.5271 43.0856 98.5271 45.1413Z" fill="#F06E00"/>
<path d="M189.034 74.739H268.929V99.317H189.034V74.739ZM191.33 143.649H282.015V168.687H161.484V7.89596H278.801V32.9334H191.33V143.649Z" fill="#F06E00"/>
<path d="M303.808 168.687V7.89596H333.654V143.42H417.681V168.687H303.808Z" fill="#F06E00"/>
<path d="M420.658 168.687V74.7181H450.971C457.636 74.7181 463.201 76.0028 467.664 78.5723C472.158 81.1111 475.537 84.5677 477.799 88.9419C480.092 93.3161 481.239 98.2408 481.239 103.716C481.239 109.192 480.107 114.132 477.845 118.536C475.583 122.911 472.22 126.382 467.756 128.952C463.292 131.491 457.743 132.76 451.109 132.76H427.262V125.052H450.88C455.802 125.052 459.883 124.134 463.124 122.299C466.365 120.433 468.78 117.894 470.37 114.682C471.99 111.47 472.8 107.815 472.8 103.716C472.8 99.6173 471.99 95.962 470.37 92.7502C468.78 89.5383 466.35 87.0148 463.078 85.1794C459.837 83.3441 455.725 82.4265 450.742 82.4265H429.234V168.687H420.658Z" fill="#002D62"/>
<path d="M565.455 121.702C565.455 131.491 563.713 140.01 560.227 147.259C556.742 154.478 551.942 160.076 545.828 164.053C539.743 167.998 532.742 169.971 524.824 169.971C516.905 169.971 509.889 167.998 503.774 164.053C497.69 160.076 492.905 154.478 489.42 147.259C485.965 140.01 484.238 131.491 484.238 121.702C484.238 111.914 485.965 103.41 489.42 96.1914C492.905 88.9419 497.705 83.3441 503.82 79.3982C509.935 75.4216 516.936 73.4334 524.824 73.4334C532.742 73.4334 539.743 75.4216 545.828 79.3982C551.942 83.3441 556.742 88.9419 560.227 96.1914C563.713 103.41 565.455 111.914 565.455 121.702ZM557.109 121.702C557.109 113.291 555.703 106.087 552.89 100.091C550.077 94.0655 546.24 89.4619 541.379 86.2806C536.518 83.0994 531 81.5088 524.824 81.5088C518.679 81.5088 513.175 83.0994 508.314 86.2806C503.453 89.4619 499.601 94.0502 496.758 100.046C493.945 106.041 492.539 113.26 492.539 121.702C492.539 130.114 493.945 137.318 496.758 143.313C499.57 149.309 503.407 153.912 508.268 157.124C513.13 160.305 518.648 161.896 524.824 161.896C531 161.896 536.518 160.305 541.379 157.124C546.271 153.943 550.123 149.355 552.936 143.359C555.749 137.333 557.14 130.114 557.109 121.702Z" fill="#002D62"/>
<path d="M624.277 98.2102C623.758 92.9796 621.449 88.8195 617.353 85.73C613.256 82.6406 608.104 81.0959 601.898 81.0959C597.526 81.0959 593.674 81.8453 590.341 83.3441C587.039 84.843 584.441 86.923 582.545 89.5842C580.68 92.2149 579.748 95.2126 579.748 98.5773C579.748 101.055 580.283 103.227 581.353 105.093C582.423 106.959 583.86 108.565 585.664 109.91C587.498 111.226 589.516 112.358 591.717 113.306C593.949 114.254 596.196 115.049 598.458 115.692L608.364 118.536C611.36 119.362 614.356 120.418 617.353 121.702C620.349 122.987 623.085 124.608 625.562 126.566C628.069 128.493 630.071 130.864 631.569 133.678C633.098 136.461 633.862 139.811 633.862 143.726C633.862 148.743 632.563 153.255 629.964 157.262C627.365 161.269 623.635 164.45 618.774 166.806C613.913 169.13 608.089 170.293 601.302 170.293C594.912 170.293 589.363 169.237 584.655 167.127C579.946 164.985 576.247 162.034 573.557 158.271C570.866 154.509 569.353 150.15 569.017 145.195H577.822C578.127 148.896 579.35 152.031 581.49 154.601C583.63 157.17 586.413 159.128 589.837 160.474C593.261 161.789 597.083 162.447 601.302 162.447C605.979 162.447 610.137 161.667 613.776 160.107C617.444 158.516 620.318 156.314 622.397 153.499C624.507 150.655 625.562 147.351 625.562 143.589C625.562 140.407 624.736 137.746 623.085 135.605C621.434 133.433 619.126 131.613 616.16 130.145C613.225 128.677 609.816 127.377 605.934 126.245L594.698 122.941C587.33 120.739 581.613 117.695 577.546 113.811C573.48 109.926 571.447 104.97 571.447 98.9444C571.447 93.8972 572.792 89.4619 575.483 85.6383C578.204 81.7841 581.873 78.7864 586.489 76.6452C591.136 74.4734 596.349 73.3875 602.127 73.3875C607.967 73.3875 613.134 74.4581 617.628 76.5993C622.122 78.7405 625.684 81.6923 628.313 85.4547C630.973 89.1866 632.395 93.4384 632.578 98.2102H624.277Z" fill="#002D62"/>
<path d="M635.898 82.4265V74.7181H704V82.4265H674.237V168.687H665.661V82.4265H635.898Z" fill="#002D62"/>
</svg>
