<svg width="300" height="55" viewBox="0 0 300 55" fill="none" xmlns="http://www.w3.org/2000/svg">
<path d="M0 12.3377V0.75009H46.0399V12.3377H30.107V53.7219H15.9329V12.3377H0Z" fill="#E7020E"/>
<path d="M49.3183 53.7219V0.75009H87.4953V12.3377H63.6994V21.4422H85.5295V33.0298H63.6994V42.1343H87.3918V53.7219H49.3183Z" fill="#E7020E"/>
<path d="M90.9935 53.7219V45.7554L116.031 12.3377H91.097V0.75009H134.344V8.71655L109.306 42.1343H134.24V53.7219H90.9935Z" fill="#E7020E"/>
<path d="M137.619 53.7219V0.75009H154.716C158.475 0.75009 161.613 1.47431 164.13 2.92276C166.665 4.35397 168.571 6.30247 169.847 8.76828C171.14 11.2341 171.787 14.0103 171.787 17.0969C171.787 20.1834 171.149 22.9682 169.873 25.4513C168.596 27.9171 166.7 29.8742 164.182 31.3227C161.665 32.7539 158.535 33.4695 154.793 33.4695H141.343V29.1241H154.664C157.44 29.1241 159.742 28.6068 161.57 27.5722C163.398 26.5204 164.76 25.0892 165.656 23.2786C166.57 21.4681 167.027 19.4075 167.027 17.0969C167.027 14.7862 166.57 12.7256 165.656 10.9151C164.76 9.10453 163.389 7.68195 161.544 6.64734C159.716 5.61273 157.397 5.09543 154.586 5.09543H142.455V53.7219H137.619Z" fill="#1F3F9A"/>
<path d="M218.353 27.236C218.353 32.7539 217.371 37.5562 215.405 41.6429C213.439 45.7123 210.732 48.8679 207.283 51.1095C203.852 53.3339 199.903 54.4461 195.437 54.4461C190.971 54.4461 187.014 53.3339 183.565 51.1095C180.133 48.8679 177.435 45.7123 175.469 41.6429C173.521 37.5562 172.546 32.7539 172.546 27.236C172.546 21.7181 173.521 16.9244 175.469 12.855C177.435 8.76828 180.142 5.61273 183.591 3.38833C187.039 1.14669 190.988 0.0258659 195.437 0.0258659C199.903 0.0258659 203.852 1.14669 207.283 3.38833C210.732 5.61273 213.439 8.76828 215.405 12.855C217.371 16.9244 218.353 21.7181 218.353 27.236ZM213.646 27.236C213.646 22.494 212.853 18.4332 211.266 15.0535C209.68 11.6566 207.516 9.06142 204.774 7.2681C202.033 5.47479 198.92 4.57813 195.437 4.57813C191.971 4.57813 188.867 5.47479 186.126 7.2681C183.384 9.06142 181.211 11.6479 179.607 15.0276C178.021 18.4074 177.228 22.4768 177.228 27.236C177.228 31.9779 178.021 36.0388 179.607 39.4185C181.194 42.7982 183.358 45.3933 186.1 47.2039C188.841 48.9972 191.954 49.8938 195.437 49.8938C198.92 49.8938 202.033 48.9972 204.774 47.2039C207.533 45.4106 209.706 42.824 211.292 39.4443C212.879 36.0474 213.663 31.9779 213.646 27.236Z" fill="#1F3F9A"/>
<path d="M253.016 13.993C252.723 11.0444 251.421 8.69931 249.11 6.95772C246.8 5.21614 243.894 4.34535 240.394 4.34535C237.928 4.34535 235.755 4.76781 233.876 5.61274C232.013 6.45766 230.548 7.63022 229.479 9.13039C228.427 10.6133 227.901 12.3032 227.901 14.2C227.901 15.5967 228.203 16.821 228.806 17.8728C229.41 18.9247 230.22 19.8299 231.238 20.5886C232.272 21.3301 233.41 21.9681 234.652 22.5027C235.911 23.0372 237.178 23.4855 238.454 23.8477L244.041 25.4513C245.731 25.9169 247.42 26.5118 249.11 27.236C250.8 27.9602 252.343 28.8741 253.74 29.9777C255.154 31.064 256.284 32.4004 257.129 33.9868C257.991 35.5559 258.422 37.4441 258.422 39.6513C258.422 42.4792 257.689 45.0226 256.223 47.2815C254.758 49.5404 252.654 51.3337 249.912 52.6614C247.17 53.9719 243.886 54.6272 240.058 54.6272C236.454 54.6272 233.324 54.0323 230.669 52.8425C228.013 51.6354 225.927 49.9714 224.409 47.8505C222.892 45.7296 222.038 43.2724 221.848 40.4789H226.815C226.987 42.5654 227.677 44.3328 228.884 45.7813C230.091 47.2297 231.66 48.3333 233.591 49.092C235.523 49.8335 237.678 50.2042 240.058 50.2042C242.696 50.2042 245.041 49.7645 247.093 48.8851C249.162 47.9884 250.783 46.7469 251.956 45.1605C253.145 43.5569 253.74 41.6946 253.74 39.5737C253.74 37.7803 253.275 36.2802 252.343 35.0731C251.412 33.8488 250.11 32.8229 248.438 31.9952C246.782 31.1675 244.86 30.4346 242.67 29.7966L236.333 27.9343C232.177 26.6928 228.953 24.9771 226.659 22.7872C224.366 20.5973 223.219 17.8038 223.219 14.4069C223.219 11.5617 223.978 9.06142 225.495 6.90599C227.03 4.73332 229.099 3.04347 231.703 1.83642C234.324 0.612141 237.264 0 240.523 0C243.817 0 246.731 0.603521 249.266 1.81056C251.8 3.0176 253.809 4.68159 255.292 6.80253C256.792 8.90623 257.594 11.3031 257.698 13.993H253.016Z" fill="#1F3F9A"/>
<path d="M261.59 5.09543V0.75009H300V5.09543H283.214V53.7219H278.377V5.09543H261.59Z" fill="#1F3F9A"/>
</svg>
